# xmcd
#
# Track frame offsets: 
#        150
#        16630
#        34261
#        54821
#        81543
#        96364
#        130895
#        150532
#        167376
#        183313
#        205338
#        232141
#
# Disc length: 3412 seconds
#
# Revision: 0
# Processed by: cddbd v1.5.2PL0 Copyright (c) Steve Scherf et al.
# Submitted via: ExactAudioCopyFreeDBPlugin 1.0
#
DISCID=930d520c
DTITLE=The Charlie Daniels Band - Country: The Charlie Daniels Band
DYEAR=2013
DGENRE=Country
TTITLE0=The South's Gonna Do It (Again)
TTITLE1=Drinkin' My Baby Goodbye
TTITLE2=The Legend Of Wooley Swamp
TTITLE3=El Toreador
TTITLE4=Simple Man
TTITLE5=Hard Headed Woman
TTITLE6=Long Haired Country Boy
TTITLE7=Little Folks
TTITLE8=In America
TTITLE9=Still In Saigon
TTITLE10=Orange Blossom Special
TTITLE11=The Devil Went Down To Georgia
EXTD=
EXTT0=
EXTT1=
EXTT2=
EXTT3=
EXTT4=
EXTT5=
EXTT6=
EXTT7=
EXTT8=
EXTT9=
EXTT10=
EXTT11=
PLAYORDER=
